<?xml version="1.0" ?><svg xmlns="http://www.w3.org/2000/svg" xmlns:xlink="http://www.w3.org/1999/xlink" version="1.1" viewBox="0 0 512 512" style="enable-background:new 0 0 512 512;" xml:space="preserve"><g id="_x33_3_x2C__theatre_x2C__stage_x2C__theater_x2C__curtain_x2C__entertainment_x2C__decoration"><g><path fill="#ffffff" d="M502.611,41.149c-261.053-42.433-245.164-40.498-248.223-40l-245,40C4.552,41.938,1,46.117,1,51.019    c0,5.944,0,444.308,0,450c0,5.522,4.477,10,10,10c18.503,0,464.295,0,490,0c5.522,0,10-4.478,10-10c0-49.057,0-389.335,0-450    C511,46.117,507.448,41.938,502.611,41.149z M321,101.019h50.212L321,138.171V101.019z M401,103.858v37.16h-50.222L401,103.858z     M301,101.019v37.168l-50.226-37.168H301z M221,103.865l50.207,37.153H221V103.865z M121,101.019h50.209L121,138.178V101.019z     M201,103.852v37.167h-50.218L201,103.852z M101,101.019v37.161l-50.216-37.161H101z M21,161.019h31.874L21,191.166V161.019z     M21,250.854l31.886,30.164H21V250.854z M21,301.019h31.865L21,331.163V301.019z M21,390.857l31.878,30.162H21V390.857z     M21,441.019h31.876L21,471.173V441.019z M61,491.019H29.124L61,460.864V491.019z M61,401.171l-31.868-30.152H61V401.171z     M61,351.019H29.114L61,320.854V351.019z M61,261.163l-31.865-30.145H61V261.163z M61,211.019H29.115L61,180.861V211.019z     M21,141.019v-37.161l50.216,37.161C53.068,141.019,41.069,141.019,21,141.019z M431,491.019h-50v-30c0-5.522-4.478-10-10-10H141    c-5.523,0-10,4.478-10,10v30H81v-70h350V491.019z M431,401.019H81v-240c0.859,0,18.31,0,45,0v21.72    c-11.639,4.128-20,15.243-20,28.28c0,16.542,13.458,30,30,30s30-13.458,30-30c0-13.036-8.361-24.152-20-28.28v-21.72    c17.908,0,38.396,0,60,0v21.72c-11.639,4.128-20,15.243-20,28.28c0,16.542,13.458,30,30,30s30-13.458,30-30    c0-13.036-8.361-24.152-20-28.28v-21.72c19.821,0,40.171,0,60,0v21.72c-11.639,4.128-20,15.243-20,28.28c0,16.542,13.458,30,30,30    s30-13.458,30-30c0-13.036-8.361-24.152-20-28.28v-21.72c21.59,0,42.076,0,60,0v21.72c-11.639,4.128-20,15.243-20,28.28    c0,16.542,13.458,30,30,30s30-13.458,30-30c0-13.036-8.361-24.152-20-28.28v-21.72c25.073,0,42.081,0,45,0V401.019z M421,141.019    v-37.161l50.217,37.161C463.108,141.019,433.049,141.019,421,141.019z M451,281.019v-30.164l31.886,30.164H451z M482.865,301.019    L451,331.163v-30.145H482.865z M482.875,161.019L451,191.167v-30.148H482.875z M482.878,421.019H451v-30.161L482.878,421.019z     M451,441.019h31.876L451,471.173V441.019z M491,491.019h-31.876L491,460.864V491.019z M491,401.17l-31.867-30.152H491V401.17z     M491,351.019h-31.886L491,320.854V351.019z M491,261.163l-31.865-30.145H491V261.163z M491,211.019h-31.885L491,180.861V211.019z     M491,130.778l-40.216-29.76H491V130.778z"/></g></g><g id="Layer_1"/></svg>